<?xml version="1.0" standalone="no"?>
<!DOCTYPE svg PUBLIC "-//W3C//DTD SVG 20010904//EN"
 "http://www.w3.org/TR/2001/REC-SVG-20010904/DTD/svg10.dtd">
<svg version="1.0" xmlns="http://www.w3.org/2000/svg"
 width="128.000000pt" height="128.000000pt" viewBox="0 0 128.000000 128.000000"
 preserveAspectRatio="xMidYMid meet">
<metadata>
Created by potrace 1.12, written by Peter Selinger 2001-2015
</metadata>
<g transform="translate(0.000000,128.000000) scale(0.100000,-0.100000)"
fill="#000000" stroke="none">
<path d="M352 1008 c-27 -34 -352 -782 -347 -799 7 -22 39 -33 61 -21 9 5 34
49 56 98 22 49 41 90 43 92 1 2 31 -7 66 -19 51 -17 102 -23 249 -30 217 -10
304 -28 430 -91 47 -24 87 -44 90 -45 3 -2 11 1 18 5 17 11 263 699 256 717
-8 19 -115 60 -207 79 -97 20 -149 20 -322 -1 -138 -16 -142 -16 -247 5 -125
26 -132 26 -146 10z m680 -74 c3 -3 -6 -32 -20 -65 -25 -59 -27 -60 -57 -54
-16 3 -54 9 -83 12 -52 6 -54 7 -49 32 16 80 18 81 115 81 49 0 91 -3 94 -6z
m-242 -118 c0 -5 -51 -128 -56 -134 -1 -2 -38 0 -81 3 l-79 7 25 64 25 64 83
0 c46 0 83 -2 83 -4z m308 -52 c23 -4 45 -11 48 -16 3 -5 -5 -37 -17 -72 l-23
-63 -44 14 c-25 7 -59 13 -77 13 -17 0 -34 3 -38 6 -5 5 24 102 39 125 3 6 20
8 38 5 17 -3 50 -8 74 -12z m-580 -92 l23 -7 -31 -61 -32 -61 -51 5 c-29 2
-54 6 -56 8 -2 1 7 30 20 63 24 61 24 61 64 60 22 -1 50 -4 63 -7z m375 -42
c5 -4 -5 -35 -22 -69 -28 -54 -33 -60 -54 -52 -12 5 -48 12 -80 15 -32 4 -57
11 -55 15 2 4 14 32 28 62 l24 55 76 -9 c41 -5 79 -13 83 -17z m-247 -112 c3
-3 -8 -33 -23 -67 l-28 -61 -77 0 -77 0 18 43 c10 23 21 55 25 71 l7 29 75 -5
c41 -3 77 -7 80 -10z m305 -58 c96 -17 95 -15 64 -104 -15 -42 -29 -76 -32
-76 -2 0 -25 11 -51 24 -26 13 -66 29 -89 36 -24 7 -43 17 -43 21 0 5 11 34
25 64 19 44 29 55 42 52 10 -3 48 -10 84 -17z"/>
</g>
</svg>
